<?xml version="1.0" encoding="UTF-8"?>
<svg id="Layer_1" data-name="Layer 1" xmlns="http://www.w3.org/2000/svg" viewBox="0 0 165.3 165.3">
  <defs>
    <style>
      .cls-1 {
        fill: none;
      }

      .cls-2 {
        stroke: #000;
        stroke-miterlimit: 10;
        stroke-width: .22px;
      }

      .cls-3 {
        fill: #fcc23b;
      }
    </style>
  </defs>
  <circle class="cls-3" cx="83" cy="83" r="66.69"/>
  <g>
    <rect class="cls-1" width="165.3" height="165.3"/>
    <g>
      <path class="cls-2" d="M82.65.27C37.15.27.27,37.15.27,82.65s36.88,82.38,82.38,82.38,82.38-36.89,82.38-82.38S128.15.27,82.65.27ZM82.65,145.38c-34.65,0-62.74-28.09-62.74-62.74s28.1-62.74,62.74-62.74,62.74,28.09,62.74,62.74-28.09,62.74-62.74,62.74h0Z"/>
      <path class="cls-2" d="M82.65,26.49c-27.68,0-50.63,20.04-55.25,46.4h5.48c4.56-23.35,25.09-40.97,49.77-40.97,28.02,0,50.73,22.71,50.73,50.73s-22.71,50.73-50.73,50.73c-24.68,0-45.22-17.63-49.77-40.97h-5.48c4.63,26.35,27.58,46.4,55.25,46.4,31.01,0,56.16-25.14,56.16-56.16s-25.14-56.16-56.16-56.16h0Z"/>
      <path d="M69.31,45.89c4.17-1.51,8.64-2.38,13.33-2.38,18.81,0,34.52,13.28,38.27,30.97h5.44c-3.84-20.67-21.93-36.33-43.71-36.33-5.84,0-11.39,1.15-16.49,3.2l3.16,4.54h0Z"/>
      <path d="M121.15,89.51c-3.25,18.34-19.23,32.28-38.5,32.28-21.61,0-39.14-17.53-39.14-39.14,0-11.51,5-21.83,12.91-28.98l-3.08-4.42c-9.29,8.16-15.18,20.08-15.18,33.41,0,24.57,19.92,44.5,44.5,44.5,22.24,0,40.61-16.32,43.91-37.63h-5.41Z"/>
      <path d="M82.65,50.18c-17.93,0-32.46,14.53-32.46,32.46,0,15.34,10.65,28.16,24.95,31.56v-5.86c-11.13-3.25-19.27-13.52-19.27-25.7,0-14.79,11.99-26.78,26.78-26.78s26.78,11.99,26.78,26.78c0,12.18-8.14,22.44-19.27,25.7v5.86c14.3-3.4,24.95-16.22,24.95-31.56,0-17.93-14.53-32.46-32.46-32.46Z"/>
      <path d="M87.4,62.59v5.79c6,2,10.37,7.6,10.37,14.29,0,8.35-6.77,15.12-15.12,15.12s-15.12-6.77-15.12-15.12c0-6.68,4.36-12.29,10.37-14.29v-5.79c-9.12,2.16-15.92,10.3-15.92,20.07,0,11.42,9.26,20.67,20.67,20.67s20.67-9.26,20.67-20.67c0-9.77-6.8-17.92-15.91-20.07h0Z"/>
      <path d="M82.65,90.84c4.52,0,8.19-3.67,8.19-8.19s-3.67-8.19-8.19-8.19-8.19,3.67-8.19,8.19,3.67,8.19,8.19,8.19Z"/>
    </g>
  </g>
</svg>